<svg xmlns="http://www.w3.org/2000/svg" width="280" height="200" viewBox="0 0 280 200"><path d="M70 150c0-40 30-70 72-70s68 30 68 70z" fill="#2e3312"/>
<path d="M114 128h56l-6-10V94c0-14-10-24-22-26v-6a4 4 0 0 0-8 0v6c-12 2-22 12-22 26v24z" fill="#1c1c19" stroke="#f2f0ea" stroke-width="3" stroke-linecap="round" stroke-linejoin="round"/>
<path d="M104 128h72" fill="none" stroke="#f2f0ea" stroke-width="3" stroke-linecap="round" stroke-linejoin="round"/>
<path d="M132 136a10 10 0 0 0 20 0" fill="#1c1c19" stroke="#f2f0ea" stroke-width="3" stroke-linecap="round" stroke-linejoin="round"/>
<path d="M120 100c1-4 3-6 7-6h30c4 0 6 2 6 6v4c0 3-2 5-6 5h-31c-4 0-7-3-6-9z" fill="#d4f24a"/>
<circle cx="170" cy="66" r="11" fill="#ff7a45" stroke="#f2f0ea" stroke-width="3"/>
<path d="M86 84l-10-6M84 104H72M200 84l10-6M202 104h12" fill="none" stroke="#f2f0ea" stroke-width="3" stroke-linecap="round" stroke-linejoin="round"/></svg>
