<svg xmlns="http://www.w3.org/2000/svg" width="280" height="200" viewBox="0 0 280 200"><path d="M40 150c10-30 60-40 110-44s90 6 100 30c6 18-20 34-70 38s-150 8-140-24z" fill="#eef8c4"/>
<g transform="rotate(-9 140 100)"><rect x="70" y="48" width="150" height="100" rx="16" fill="#ffffff" stroke="#15140f" stroke-width="3" stroke-linecap="round" stroke-linejoin="round"/></g>
<g transform="rotate(6 140 100)"><rect x="66" y="52" width="150" height="100" rx="16" fill="#ffffff" stroke="#15140f" stroke-width="3" stroke-linecap="round" stroke-linejoin="round"/></g>
<rect x="62" y="54" width="156" height="104" rx="16" fill="#ffffff" stroke="#15140f" stroke-width="3" stroke-linecap="round" stroke-linejoin="round"/>
<path d="M82 84c2-5 6-7 12-7l86-3c6 0 8 3 7 8l-1 6c-1 4-4 6-9 6l-86 2c-6 0-10-4-9-12z" fill="#d4f24a"/>
<rect x="92" y="80" width="72" height="12" rx="6" fill="#15140f"/>
<rect x="84" y="112" width="104" height="8" rx="4" fill="#5c584f"/>
<rect x="84" y="128" width="70" height="8" rx="4" fill="#5c584f"/>
<path d="M232 34l3.5 10.5L246 48l-10.5 3.5L232 62l-3.5-10.5L218 48l10.5-3.5z" fill="#ff6b2c"/>
<path d="M44 44l2 6 6 2-6 2-2 6-2-6-6-2 6-2z" fill="#15140f"/></svg>
